<svg width="1920" height="1080" viewBox="0 0 1920 1080" fill="none" xmlns="http://www.w3.org/2000/svg">
<g clip-path="url(#clip0_635_4)">
<path d="M242 755H268L26 1080H0L242 755Z" fill="#FFBCFF"/>
<path d="M1804 755H1830L1588 1080H1562L1804 755Z" fill="#FFBCFF"/>
<path d="M1836 904.5H1862L1740 1080H1714L1836 904.5Z" fill="#FFBCFF"/>
<path d="M1894.5 1016H1920.5L1872 1081.5H1846L1894.5 1016Z" fill="#FFBCFF"/>
<path d="M563.5 540.5H589.5L211 1080H185L563.5 540.5Z" fill="#FFBCFF"/>
<path d="M1738.5 571H1764.5L1386 1110.5H1360L1738.5 571Z" fill="#FFBCFF"/>
<path d="M936.5 275.5H962.5L414 1080.5H388L936.5 275.5Z" fill="#FFBCFF"/>
<path d="M1738.5 275H1764.5L1216 1080H1190L1738.5 275Z" fill="#FFBCFF"/>
<path d="M1277.5 71H1303.5L628 1081H602L1277.5 71Z" fill="#FFBCFF"/>
<path d="M1639.5 101H1665.5L990 1111H964L1639.5 101Z" fill="#FFBCFF"/>
<path d="M1650 -181.5H1676L834 1081.5H808L1650 -181.5Z" fill="#FFBCFF"/>
</g>
<defs>
<clipPath id="clip0_635_4">
<rect width="1920" height="1080" fill="white"/>
</clipPath>
</defs>
</svg>
