<svg width="177" height="144" viewBox="0 0 177 144" fill="none" xmlns="http://www.w3.org/2000/svg">
<path d="M91.7274 80.5137C92.058 74.6186 94.9401 69.4097 99.3068 65.7292C103.58 62.111 109.319 59.8965 115.62 59.8965C121.889 59.8965 127.628 62.1079 131.901 65.7292C136.268 69.4097 139.138 74.6186 139.481 80.5137C139.811 86.5647 137.375 92.2103 133.118 96.3899C128.751 100.632 122.575 103.314 115.62 103.314C108.664 103.314 102.457 100.651 98.1216 96.3899C93.8484 92.2103 91.4155 86.596 91.7586 80.5449L91.7274 80.5137Z" fill="white"/>
<path d="M54.2981 92.9907C54.3386 95.2989 55.0747 99.7903 56.1789 103.284C58.4995 110.707 62.4483 117.569 67.9067 123.589C73.5211 129.796 80.4455 134.787 88.4304 138.342C96.8208 142.054 105.929 143.957 115.379 143.957C124.83 143.944 133.938 142.011 142.328 138.249C150.313 134.662 157.238 129.671 162.852 123.433C168.342 117.351 172.272 110.489 174.58 103.065C175.75 99.3225 176.489 95.5172 176.785 91.7119C177.075 87.969 176.954 84.1949 176.42 80.4208C175.378 73.0909 172.833 66.1977 168.934 59.9595C165.379 54.1891 160.762 49.1674 155.273 44.9254L155.285 44.9161L100.077 2.49628C100.027 2.45885 99.9867 2.41827 99.9336 2.38396C96.3155 -0.398281 90.202 -0.388908 86.2408 2.39957C82.2172 5.21923 81.7493 9.8854 85.3363 12.8174L85.3207 12.833L108.371 31.5788L38.1911 31.6536H38.0975C32.296 31.6598 26.7128 35.459 25.6211 40.2936C24.4857 45.1906 28.4283 49.2765 34.4793 49.2765L34.47 49.2984L70.0277 49.2298L6.39809 97.8877C6.317 97.947 6.22965 98.0093 6.15479 98.0686C0.166122 102.654 -1.76773 110.296 2.00638 115.099C5.84288 119.996 13.9837 120.027 20.0348 115.127L54.6568 86.7432C54.6568 86.7432 54.1515 90.5797 54.1921 92.8566L54.2981 92.9907ZM143.504 105.81C136.362 113.078 126.349 117.226 115.557 117.226C104.734 117.245 94.7216 113.171 87.5789 105.904C84.0855 102.348 81.5278 98.2932 79.9371 93.9576C78.3869 89.6845 77.7849 85.1618 78.1842 80.6079C78.5616 76.1476 79.8903 71.8744 82.0207 68.0379C84.1042 64.2638 86.98 60.8328 90.5046 57.9321C97.4602 52.2865 106.287 49.1985 115.52 49.1985C124.784 49.1861 133.611 52.2209 140.566 57.8696C144.091 60.7517 146.96 64.1703 149.05 67.9444C151.18 71.7809 152.512 76.0228 152.887 80.5143C153.28 85.0682 152.678 89.5909 151.127 93.8641C149.543 98.2308 146.979 102.286 143.486 105.841L143.504 105.81Z" fill="white"/>
</svg>
