<svg width="1920" height="2090" viewBox="0 0 1920 2090" fill="none" xmlns="http://www.w3.org/2000/svg">
<g clip-path="url(#clip0_635_4)">
<path d="M550.5 509H576.5L198 1048.5H172L550.5 509Z" fill="white"/>
<path d="M1560.5 899.5H1586.5L1232 1453.5H1206L1560.5 899.5Z" fill="white"/>
<path d="M917.5 275.5H943.5L127 1453.5H101L917.5 275.5Z" fill="white"/>
<path d="M1640 447.5H1666L878 1627H852L1640 447.5Z" fill="white"/>
<path d="M1258.5 71H1284.5L121 1788H95L1258.5 71Z" fill="white"/>
<path d="M1650.5 95H1676.5L513 1812H487L1650.5 95Z" fill="white"/>
<path d="M1631 -181.5H1657L129 2090H103L1631 -181.5Z" fill="white"/>
<path d="M268.199 569.673C266.566 576.751 278.781 579.558 287.362 580.306C288.536 580.409 289.15 579.017 288.316 578.183V578.183V578.183C286.384 576.251 290.987 574.302 293.225 572.735L297.599 569.673C357.941 532.54 433.756 490.764 505.702 425.007C562.498 373.097 570.685 305.097 566.044 275.7C564.754 266.158 559.236 238.875 547.477 206.074C578.6 266.096 528.137 358.802 453.87 414.177C365.677 479.934 302.802 526.981 280.58 550.333C277.226 553.427 270.056 561.628 268.199 569.673Z" stroke="#FFBCFF"/>
<path d="M433.731 71.4688C471.38 89.5197 524.245 144.188 462.355 223.871C398.817 305.673 287.917 404.123 225.628 464.465C194.744 494.384 159.208 555.821 245.517 576.782C248.755 577.568 249.74 573.947 246.609 572.804V572.804C246.476 572.755 246.458 572.739 246.334 572.67C240.124 569.21 229.88 558.694 237.234 543.373C244.661 527.901 261.99 509.076 269.726 501.598L405.109 383.235C454.362 343.007 547.918 246.924 528.113 184.416C508.309 121.908 456.94 83.073 433.731 71.4688Z" stroke="#FFBCFF"/>
<path d="M18.416 309.782C-1.36092 146.004 190.925 59.3727 289.3 33.7088C289.582 33.6353 289.859 33.6016 290.15 33.6016H291.309C292.564 33.6016 293.581 34.6187 293.581 35.8733V35.8733C293.581 36.4049 293.399 36.9193 293.022 37.2943C290.884 39.4229 284.268 44.8219 270.373 53.7155C97.9949 151.965 48.4765 205.344 22.1736 281.158C17.8027 297.404 18.2779 330.669 18.416 309.782ZM86.3836 486.166C66.0117 462.184 26.1964 403.389 29.9097 360.067C33.6231 316.744 54.6654 279.095 64.7224 265.686C83.0313 243.509 96.8712 219.478 156.009 175.947C211.709 134.945 319.242 59.8637 313.827 42.8849C313.141 40.7356 312.521 39.0816 311.965 37.8123C311.004 35.6143 311.814 33.9877 314.213 33.9884V33.9884V33.9884C321.135 34.2447 328.231 35.2567 333.753 39.4382C342.157 45.8029 349.682 56.604 348 69.5C346.5 81 328.416 100 320.789 107.095C187.727 230.873 -17.5903 349.391 86.3836 486.166Z" stroke="#FFBCFF"/>
<path d="M276.696 32C180.768 33.2378 108.822 98.0151 84.8398 130.249C145.182 67.5862 250.394 36.6417 285.206 32H276.696Z" stroke="#FFBCFF"/>
<path d="M405.706 551.958C495.426 517.985 540.878 432.508 552.389 394.015C517.118 473.537 439.152 526.321 296.794 581.228C297.521 580.963 367.206 566.562 405.706 551.958Z" stroke="#FFBCFF"/>
<path d="M96.4527 435.825C79.4351 503.129 152.099 545.936 187.943 561.15C103.157 519.685 156.023 455.165 187.943 413.39C195.42 405.138 241.01 356.607 363.551 240.874C466.547 143.6 448.507 84.6917 416.552 58.7287C405.135 49.4529 390.272 46.2302 375.769 43.7721L351.946 39.7344C369.224 43.6024 400.839 61.0861 389.08 100.076C377.921 137.078 291.847 214.862 224.691 274.052C217.596 280.305 210.063 286.036 203.15 292.49C172.335 321.259 105.327 400.725 96.4527 435.825Z" stroke="#FFBCFF"/>
<path d="M1572.2 1767.67C1570.57 1774.75 1582.78 1777.56 1591.36 1778.31C1592.54 1778.41 1593.15 1777.02 1592.32 1776.18V1776.18V1776.18C1590.38 1774.25 1594.99 1772.3 1597.22 1770.74L1601.6 1767.67C1661.94 1730.54 1737.76 1688.76 1809.7 1623.01C1866.5 1571.1 1874.69 1503.1 1870.04 1473.7C1868.75 1464.16 1863.24 1436.88 1851.48 1404.07C1882.6 1464.1 1832.14 1556.8 1757.87 1612.18C1669.68 1677.93 1606.8 1724.98 1584.58 1748.33C1581.23 1751.43 1574.06 1759.63 1572.2 1767.67Z" stroke="#BCFFD7"/>
<path d="M1737.73 1269.47C1775.38 1287.52 1828.25 1342.19 1766.35 1421.87C1702.82 1503.67 1591.92 1602.12 1529.63 1662.46C1498.74 1692.38 1463.21 1753.82 1549.52 1774.78C1552.76 1775.57 1553.74 1771.95 1550.61 1770.8V1770.8C1550.48 1770.76 1550.46 1770.74 1550.33 1770.67C1544.12 1767.21 1533.88 1756.69 1541.23 1741.37C1548.66 1725.9 1565.99 1707.08 1573.73 1699.6L1709.11 1581.24C1758.36 1541.01 1851.92 1444.92 1832.11 1382.42C1812.31 1319.91 1760.94 1281.07 1737.73 1269.47Z" stroke="#BCFFD7"/>
<path d="M1322.42 1507.78C1302.64 1344 1494.92 1257.37 1593.3 1231.71C1593.58 1231.64 1593.86 1231.6 1594.15 1231.6H1595.31C1596.56 1231.6 1597.58 1232.62 1597.58 1233.87V1233.87C1597.58 1234.4 1597.4 1234.92 1597.02 1235.29C1594.88 1237.42 1588.27 1242.82 1574.37 1251.72C1401.99 1349.96 1352.48 1403.34 1326.17 1479.16C1321.8 1495.4 1322.28 1528.67 1322.42 1507.78ZM1390.38 1684.17C1370.01 1660.18 1330.2 1601.39 1333.91 1558.07C1337.62 1514.74 1358.67 1477.1 1368.72 1463.69C1387.03 1441.51 1400.87 1417.48 1460.01 1373.95C1515.71 1332.94 1623.24 1257.86 1617.83 1240.88C1617.14 1238.74 1616.52 1237.08 1615.97 1235.81C1615 1233.61 1615.81 1231.99 1618.21 1231.99V1231.99V1231.99C1625.13 1232.24 1632.2 1233.28 1637.81 1237.34C1646.69 1243.75 1654.95 1254.73 1652 1267.5C1650.5 1274 1641 1287.5 1624.79 1305.09C1491.73 1428.87 1286.41 1547.39 1390.38 1684.17Z" stroke="#BCFFD7"/>
<path d="M1580.7 1230C1484.77 1231.24 1412.82 1296.02 1388.84 1328.25C1449.18 1265.59 1554.39 1234.64 1589.21 1230H1580.7Z" stroke="#BCFFD7"/>
<path d="M1709.71 1749.96C1799.43 1715.99 1844.88 1630.51 1856.39 1592.02C1821.12 1671.54 1743.15 1724.32 1600.79 1779.23C1601.52 1778.96 1671.21 1764.56 1709.71 1749.96Z" stroke="#BCFFD7"/>
<path d="M1400.45 1633.82C1383.44 1701.13 1456.1 1743.94 1491.94 1759.15C1407.16 1717.68 1460.02 1653.17 1491.94 1611.39C1499.42 1603.14 1545.01 1554.61 1667.55 1438.87C1770.55 1341.6 1752.51 1282.69 1720.55 1256.73C1709.14 1247.45 1694.27 1244.23 1679.77 1241.77L1655.95 1237.73C1673.22 1241.6 1704.84 1259.09 1693.08 1298.08C1681.92 1335.08 1595.85 1412.86 1528.69 1472.05C1521.6 1478.31 1514.06 1484.04 1507.15 1490.49C1476.34 1519.26 1409.33 1598.73 1400.45 1633.82Z" stroke="#BCFFD7"/>
<path d="M661.072 472.244C660.928 472.866 662.002 473.112 662.756 473.178C662.859 473.187 662.913 473.065 662.839 472.991V472.991V472.991C662.67 472.822 663.074 472.65 663.271 472.513L663.655 472.244C668.958 468.981 675.62 465.31 681.942 459.531C686.933 454.97 687.652 448.994 687.244 446.411C687.131 445.573 686.646 443.175 685.613 440.293C688.348 445.567 683.913 453.714 677.387 458.58C669.637 464.358 664.112 468.492 662.16 470.544C661.865 470.816 661.235 471.537 661.072 472.244Z" stroke="#BCFFD7"/>
<path d="M675.62 428.469C678.928 430.055 683.573 434.859 678.135 441.861C672.552 449.049 662.806 457.7 657.333 463.003C654.619 465.632 651.496 471.03 659.081 472.872C659.365 472.941 659.452 472.623 659.177 472.523V472.523C659.165 472.519 659.163 472.517 659.152 472.511C658.607 472.207 657.707 471.283 658.353 469.937C659.005 468.577 660.528 466.923 661.208 466.266L673.104 455.865C677.433 452.33 685.654 443.887 683.913 438.394C682.173 432.901 677.659 429.488 675.62 428.469Z" stroke="#BCFFD7"/>
<path d="M639.124 449.41C637.387 435.018 654.283 427.405 662.928 425.15C662.953 425.144 662.977 425.141 663.003 425.141H663.105C663.215 425.141 663.304 425.23 663.304 425.34V425.34C663.304 425.387 663.288 425.432 663.255 425.465C663.067 425.652 662.486 426.127 661.265 426.908C646.117 435.542 641.766 440.232 639.455 446.894C639.071 448.322 639.112 451.245 639.124 449.41ZM645.097 464.909C643.307 462.802 639.808 457.635 640.134 453.828C640.461 450.021 642.31 446.713 643.194 445.535C644.802 443.586 646.019 441.474 651.215 437.649C656.11 434.046 665.559 427.448 665.083 425.956C665.023 425.768 664.968 425.622 664.92 425.511C664.835 425.317 664.906 425.175 665.117 425.175V425.175V425.175C665.725 425.197 666.34 425.291 666.865 425.599C667.719 426.101 668.56 426.943 668.074 427.996C667.422 429.41 666.216 430.987 665.695 431.599C654.002 442.476 635.96 452.89 645.097 464.909Z" stroke="#BCFFD7"/>
<path d="M661.82 425C653.39 425.109 647.068 430.801 644.961 433.633C650.263 428.127 659.509 425.408 662.568 425H661.82Z" stroke="#BCFFD7"/>
<path d="M673.157 470.69C681.041 467.705 685.035 460.194 686.047 456.811C682.947 463.799 676.096 468.437 663.586 473.262C663.65 473.239 669.774 471.973 673.157 470.69Z" stroke="#BCFFD7"/>
<path d="M645.981 460.486C644.486 466.4 650.871 470.161 654.021 471.498C646.57 467.855 651.216 462.185 654.021 458.514C654.678 457.789 658.684 453.524 669.452 443.355C676.805 436.41 677.138 431.69 675.498 428.941C674.128 426.645 671.165 426.143 668.521 425.695L668.432 425.68C669.951 426.02 672.729 427.556 671.695 430.982C671.231 432.522 669.29 434.865 666.749 437.458C660.13 444.213 652.062 449.809 647.186 457.912C646.589 458.903 646.156 459.793 645.981 460.486Z" stroke="#BCFFD7"/>
<path d="M1604.07 1939.24C1603.93 1939.87 1605 1940.11 1605.76 1940.18C1605.86 1940.19 1605.91 1940.06 1605.84 1939.99V1939.99V1939.99C1605.67 1939.82 1606.07 1939.65 1606.27 1939.51L1606.66 1939.24C1611.96 1935.98 1618.62 1932.31 1624.94 1926.53C1629.93 1921.97 1630.65 1915.99 1630.24 1913.41C1630.13 1912.57 1629.65 1910.18 1628.61 1907.29C1631.35 1912.57 1626.91 1920.71 1620.39 1925.58C1612.64 1931.36 1607.11 1935.49 1605.16 1937.54C1604.86 1937.82 1604.23 1938.54 1604.07 1939.24Z" stroke="#FFBCFF"/>
<path d="M1618.62 1895.47C1621.93 1897.05 1626.57 1901.86 1621.13 1908.86C1615.55 1916.05 1605.81 1924.7 1600.33 1930C1597.62 1932.63 1594.5 1938.03 1602.08 1939.87C1602.37 1939.94 1602.45 1939.62 1602.18 1939.52V1939.52C1602.16 1939.52 1602.16 1939.52 1602.15 1939.51C1601.61 1939.21 1600.71 1938.28 1601.35 1936.94C1602.01 1935.58 1603.53 1933.92 1604.21 1933.27L1616.1 1922.86C1620.43 1919.33 1628.65 1910.89 1626.91 1905.39C1625.17 1899.9 1620.66 1896.49 1618.62 1895.47Z" stroke="#FFBCFF"/>
<path d="M1582.12 1916.41C1580.39 1902.02 1597.28 1894.41 1605.93 1892.15C1605.95 1892.14 1605.98 1892.14 1606 1892.14H1606.1C1606.21 1892.14 1606.3 1892.23 1606.3 1892.34V1892.34C1606.3 1892.39 1606.29 1892.43 1606.26 1892.47C1606.07 1892.65 1605.49 1893.13 1604.26 1893.91C1589.12 1902.54 1584.77 1907.23 1582.45 1913.89C1582.07 1915.32 1582.11 1918.25 1582.12 1916.41ZM1588.1 1931.91C1586.31 1929.8 1582.81 1924.64 1583.13 1920.83C1583.46 1917.02 1585.31 1913.71 1586.19 1912.53C1587.8 1910.59 1589.02 1908.47 1594.22 1904.65C1599.11 1901.05 1608.56 1894.45 1608.08 1892.96C1608.02 1892.77 1607.97 1892.62 1607.92 1892.51C1607.84 1892.32 1607.91 1892.17 1608.12 1892.17V1892.17V1892.17C1608.73 1892.2 1609.34 1892.29 1609.86 1892.6C1610.72 1893.1 1611.56 1893.94 1611.07 1895C1610.42 1896.41 1609.22 1897.99 1608.69 1898.6C1597 1909.48 1578.96 1919.89 1588.1 1931.91Z" stroke="#FFBCFF"/>
<path d="M1604.82 1892C1596.39 1892.11 1590.07 1897.8 1587.96 1900.63C1593.26 1895.13 1602.51 1892.41 1605.57 1892H1604.82Z" stroke="#FFBCFF"/>
<path d="M1616.16 1937.69C1624.04 1934.7 1628.04 1927.19 1629.05 1923.81C1625.95 1930.8 1619.1 1935.44 1606.59 1940.26C1606.65 1940.24 1612.77 1938.97 1616.16 1937.69Z" stroke="#FFBCFF"/>
<path d="M1588.98 1927.49C1587.49 1933.4 1593.87 1937.16 1597.02 1938.5C1589.57 1934.85 1594.22 1929.19 1597.02 1925.51C1597.68 1924.79 1601.68 1920.52 1612.45 1910.35C1619.81 1903.41 1620.14 1898.69 1618.5 1895.94C1617.13 1893.64 1614.16 1893.14 1611.52 1892.69L1611.43 1892.68C1612.95 1893.02 1615.73 1894.56 1614.7 1897.98C1614.23 1899.52 1612.29 1901.87 1609.75 1904.46C1603.13 1911.21 1595.06 1916.81 1590.19 1924.91C1589.59 1925.9 1589.16 1926.79 1588.98 1927.49Z" stroke="#FFBCFF"/>
<path d="M677.11 173.989C676.798 175.344 679.138 175.882 680.781 176.025C681.006 176.045 681.124 175.778 680.964 175.619V175.619V175.619C680.594 175.249 681.476 174.875 681.905 174.575L682.742 173.989C694.302 166.875 708.825 158.872 722.607 146.276C733.488 136.332 735.056 123.305 734.167 117.674C733.92 115.846 732.863 110.619 730.61 104.336C736.572 115.834 726.905 133.593 712.678 144.201C695.784 156.798 683.739 165.81 679.482 170.284C678.84 170.876 677.466 172.447 677.11 173.989Z" stroke="#BCFFD7"/>
<path d="M708.822 78.5664C716.034 82.0243 726.161 92.4969 714.305 107.761C702.133 123.432 680.889 142.291 668.957 153.85C663.04 159.582 656.233 171.351 672.767 175.366C673.387 175.517 673.576 174.823 672.976 174.604V174.604C672.95 174.595 672.947 174.592 672.923 174.579C671.734 173.916 669.771 171.901 671.18 168.967C672.603 166.003 675.922 162.397 677.404 160.964L703.339 138.29C712.774 130.584 730.696 112.177 726.902 100.203C723.108 88.2288 713.268 80.7894 708.822 78.5664Z" stroke="#BCFFD7"/>
<path d="M629.271 124.215C625.483 92.841 662.318 76.2454 681.163 71.3291C681.217 71.3151 681.27 71.3086 681.326 71.3086H681.548C681.788 71.3086 681.983 71.5034 681.983 71.7438V71.7438C681.983 71.8456 681.948 71.9442 681.876 72.016C681.466 72.4237 680.199 73.458 677.537 75.1617C644.516 93.9827 635.03 104.208 629.991 118.732C629.154 121.844 629.245 128.216 629.271 124.215ZM642.291 158.004C638.389 153.41 630.762 142.147 631.473 133.848C632.184 125.549 636.215 118.336 638.142 115.768C641.649 111.519 644.3 106.916 655.629 98.5768C666.299 90.7224 686.899 76.3395 685.861 73.087C685.73 72.6752 685.611 72.3584 685.505 72.1152C685.321 71.6942 685.476 71.3826 685.935 71.3827V71.3827V71.3827C687.261 71.4318 688.601 71.6362 689.745 72.3079C691.607 73.4014 693.442 75.2369 692.382 77.5329C690.959 80.6154 688.331 84.0535 687.195 85.3873C661.705 109.099 622.374 131.803 642.291 158.004Z" stroke="#BCFFD7"/>
<path d="M678.722 71C660.345 71.2371 646.563 83.6461 641.969 89.821C653.528 77.8171 673.683 71.8892 680.352 71H678.722Z" stroke="#BCFFD7"/>
<path d="M703.462 170.609C720.649 164.101 729.356 147.727 731.561 140.353C724.805 155.587 709.869 165.698 682.598 176.216C682.738 176.166 696.087 173.407 703.462 170.609Z" stroke="#BCFFD7"/>
<path d="M644.218 148.385C640.958 161.278 654.877 169.478 661.744 172.393C645.502 164.449 655.629 152.09 661.744 144.087C663.176 142.506 671.91 133.209 695.384 111.039C711.414 95.8992 712.139 85.6108 708.564 79.6171C705.579 74.6113 699.118 73.5169 693.355 72.5407L693.161 72.5078C696.471 73.2488 702.527 76.598 700.274 84.0672C698.594 89.6403 688.041 100.043 677.354 109.747C670.352 116.104 662.96 122.121 656.834 129.327C651.237 135.91 645.332 143.975 644.218 148.385Z" stroke="#BCFFD7"/>
<path d="M112.11 750.989C111.798 752.344 114.138 752.882 115.781 753.025C116.006 753.045 116.124 752.778 115.964 752.619V752.619V752.619C115.594 752.249 116.476 751.875 116.905 751.575L117.742 750.989C129.302 743.875 143.825 735.872 157.607 723.276C168.488 713.332 170.056 700.305 169.167 694.674C168.92 692.846 167.863 687.619 165.61 681.336C171.572 692.834 161.905 710.593 147.678 721.201C130.784 733.798 118.739 742.81 114.482 747.284C113.84 747.876 112.466 749.447 112.11 750.989Z" stroke="#BCFFD7"/>
<path d="M143.822 655.566C151.034 659.024 161.161 669.497 149.305 684.761C137.133 700.432 115.889 719.291 103.957 730.85C98.0403 736.582 91.233 748.351 107.767 752.366C108.387 752.517 108.576 751.823 107.976 751.604V751.604C107.95 751.595 107.947 751.592 107.923 751.579C106.734 750.916 104.771 748.901 106.18 745.967C107.603 743.003 110.922 739.397 112.404 737.964L138.339 715.29C147.774 707.584 165.696 689.177 161.902 677.203C158.108 665.229 148.268 657.789 143.822 655.566Z" stroke="#BCFFD7"/>
<path d="M64.2713 701.215C60.4827 669.841 97.3178 653.245 116.163 648.329C116.217 648.315 116.27 648.309 116.326 648.309H116.548C116.788 648.309 116.983 648.503 116.983 648.744V648.744C116.983 648.846 116.948 648.944 116.876 649.016C116.466 649.424 115.199 650.458 112.537 652.162C79.5157 670.983 70.0298 681.208 64.9911 695.732C64.1538 698.844 64.2448 705.216 64.2713 701.215ZM77.2914 735.004C73.3889 730.41 65.7617 719.147 66.473 710.848C67.1844 702.549 71.2153 695.336 73.1419 692.768C76.6492 688.519 79.3005 683.916 90.6291 675.577C101.299 667.722 121.899 653.339 120.861 650.087C120.73 649.675 120.611 649.358 120.505 649.115C120.321 648.694 120.476 648.383 120.935 648.383V648.383V648.383C122.261 648.432 123.601 648.636 124.745 649.308C126.607 650.401 128.442 652.237 127.382 654.533C125.959 657.615 123.331 661.054 122.195 662.387C96.7052 686.099 57.3737 708.803 77.2914 735.004Z" stroke="#BCFFD7"/>
<path d="M113.722 648C95.3452 648.237 81.5629 660.646 76.9688 666.821C88.5281 654.817 108.683 648.889 115.352 648H113.722Z" stroke="#BCFFD7"/>
<path d="M138.462 747.609C155.649 741.101 164.356 724.727 166.561 717.353C159.805 732.587 144.869 742.698 117.598 753.216C117.738 753.166 131.087 750.407 138.462 747.609Z" stroke="#BCFFD7"/>
<path d="M79.2175 725.385C75.9576 738.278 89.8773 746.478 96.7437 749.393C80.5018 741.449 90.6291 729.09 96.7437 721.087C98.1761 719.506 106.91 710.209 130.384 688.039C146.414 672.899 147.139 662.611 143.564 656.617C140.579 651.611 134.118 650.517 128.355 649.541L128.161 649.508C131.471 650.249 137.527 653.598 135.274 661.067C133.594 666.64 123.041 677.043 112.354 686.747C105.352 693.104 97.96 699.121 91.8341 706.327C86.2368 712.91 80.3324 720.975 79.2175 725.385Z" stroke="#BCFFD7"/>
<path d="M1648.7 1103.19C1648.73 1104.58 1651.13 1104.53 1652.76 1104.27C1652.98 1104.24 1653.03 1103.95 1652.84 1103.84V1103.84V1103.84C1652.39 1103.57 1653.15 1102.99 1653.5 1102.6L1654.17 1101.82C1663.66 1092.12 1675.82 1080.85 1686.14 1065.29C1694.29 1053.01 1692.67 1039.99 1690.44 1034.74C1689.76 1033.03 1687.47 1028.21 1683.76 1022.66C1692.33 1032.37 1687.25 1051.94 1676.01 1065.68C1662.66 1081.99 1653.16 1093.65 1650.11 1099.02C1649.63 1099.75 1648.67 1101.6 1648.7 1103.19Z" stroke="#FFBCFF"/>
<path d="M1656.39 1002.93C1664.22 1004.54 1676.58 1012.25 1668.77 1029.93C1660.75 1048.08 1644.7 1071.52 1635.92 1085.62C1631.57 1092.61 1627.81 1105.68 1644.82 1105.57C1645.46 1105.57 1645.48 1104.85 1644.84 1104.78V1104.78C1644.81 1104.78 1644.81 1104.78 1644.78 1104.77C1643.47 1104.42 1641.08 1102.94 1641.73 1099.75C1642.4 1096.53 1644.75 1092.23 1645.84 1090.48L1665.52 1062.2C1672.81 1052.44 1685.74 1030.25 1679.17 1019.55C1672.59 1008.85 1661.24 1004.01 1656.39 1002.93Z" stroke="#FFBCFF"/>
<path d="M1590.24 1066.46C1578.98 1036.94 1610.7 1011.93 1627.8 1002.6C1627.85 1002.57 1627.9 1002.55 1627.95 1002.54L1628.17 1002.48C1628.4 1002.42 1628.64 1002.57 1628.69 1002.8V1002.8C1628.72 1002.9 1628.71 1003 1628.66 1003.09C1628.36 1003.58 1627.38 1004.89 1625.21 1007.19C1597.72 1033.44 1590.99 1045.66 1589.61 1060.97C1589.55 1064.19 1591.18 1070.35 1590.24 1066.46ZM1611.05 1096.1C1606.15 1092.59 1596.03 1083.5 1594.71 1075.28C1593.39 1067.05 1595.56 1059.08 1596.81 1056.12C1599.18 1051.15 1600.64 1046.04 1609.61 1035.21C1618.07 1025.01 1634.58 1006.07 1632.78 1003.16C1632.56 1002.8 1632.36 1002.52 1632.2 1002.31C1631.92 1001.94 1632 1001.6 1632.44 1001.49V1001.49V1001.49C1633.74 1001.22 1635.09 1001.09 1636.36 1001.47C1638.43 1002.08 1640.66 1003.42 1640.18 1005.9C1639.55 1009.24 1637.83 1013.21 1637.05 1014.78C1618.06 1043.95 1585.39 1075.5 1611.05 1096.1Z" stroke="#FFBCFF"/>
<path d="M1625.35 1002.87C1607.58 1007.54 1597.2 1022.92 1594.24 1030.02C1602.55 1015.58 1620.67 1004.95 1626.93 1002.47L1625.35 1002.87Z" stroke="#FFBCFF"/>
<path d="M1673.45 1093.53C1688.56 1083.06 1693.04 1065.07 1693.4 1057.38C1690.53 1073.79 1678.48 1087.22 1654.57 1104.02C1654.69 1103.94 1666.97 1098.03 1673.45 1093.53Z" stroke="#FFBCFF"/>
<path d="M1610.59 1086.3C1610.55 1099.6 1626.04 1104.19 1633.4 1105.35C1615.72 1101.57 1622.56 1087.13 1626.56 1077.89C1627.56 1076.01 1633.79 1064.87 1651.2 1037.68C1663.09 1019.12 1661.31 1008.96 1656.39 1004.01C1652.28 999.872 1645.75 1000.37 1639.92 1000.82L1639.72 1000.83C1643.11 1000.75 1649.8 1002.54 1649.42 1010.33C1649.14 1016.14 1641.42 1028.79 1633.4 1040.79C1628.14 1048.65 1622.42 1056.28 1618.22 1064.75C1614.38 1072.5 1610.61 1081.75 1610.59 1086.3Z" stroke="#FFBCFF"/>
<path d="M1191.84 1750.95C1191.87 1752.34 1194.27 1752.3 1195.9 1752.04C1196.12 1752 1196.17 1751.72 1195.98 1751.6V1751.6V1751.6C1195.53 1751.33 1196.29 1750.76 1196.64 1750.36L1197.31 1749.59C1206.8 1739.89 1218.96 1728.61 1229.28 1713.06C1237.44 1700.77 1235.81 1687.76 1233.58 1682.51C1232.9 1680.79 1230.61 1675.98 1226.9 1670.43C1235.47 1680.14 1230.39 1699.71 1219.15 1713.44C1205.8 1729.75 1196.3 1741.41 1193.25 1746.78C1192.77 1747.51 1191.82 1749.37 1191.84 1750.95Z" stroke="#FFBCFF"/>
<path d="M1199.53 1650.69C1207.36 1652.3 1219.72 1660.01 1211.91 1677.69C1203.89 1695.84 1187.84 1719.28 1179.06 1733.38C1174.71 1740.38 1170.95 1753.44 1187.96 1753.34C1188.6 1753.34 1188.62 1752.62 1187.98 1752.55V1752.55C1187.95 1752.55 1187.95 1752.55 1187.92 1752.54C1186.61 1752.18 1184.22 1750.7 1184.88 1747.51C1185.54 1744.29 1187.89 1739.99 1188.98 1738.24L1208.66 1709.97C1215.95 1700.21 1228.88 1678.01 1222.31 1667.31C1215.73 1656.61 1204.38 1651.77 1199.53 1650.69Z" stroke="#FFBCFF"/>
<path d="M1133.38 1714.23C1122.12 1684.7 1153.84 1659.69 1170.94 1650.36C1170.99 1650.33 1171.04 1650.32 1171.09 1650.3L1171.31 1650.25C1171.54 1650.19 1171.78 1650.33 1171.83 1650.57V1650.57C1171.86 1650.66 1171.85 1650.77 1171.8 1650.86C1171.5 1651.35 1170.52 1652.66 1168.35 1654.96C1140.86 1681.21 1134.13 1693.42 1132.75 1708.74C1132.7 1711.96 1134.33 1718.12 1133.38 1714.23ZM1154.19 1743.87C1149.29 1740.35 1139.17 1731.27 1137.85 1723.04C1136.53 1714.82 1138.7 1706.85 1139.95 1703.89C1142.32 1698.92 1143.78 1693.81 1152.76 1682.98C1161.21 1672.77 1177.72 1653.84 1175.92 1650.93C1175.7 1650.56 1175.5 1650.28 1175.34 1650.07C1175.06 1649.71 1175.14 1649.37 1175.58 1649.26V1649.26V1649.26C1176.88 1648.99 1178.23 1648.86 1179.5 1649.24C1181.57 1649.85 1183.8 1651.18 1183.33 1653.67C1182.69 1657 1180.97 1660.97 1180.19 1662.54C1161.2 1691.72 1128.53 1723.26 1154.19 1743.87Z" stroke="#FFBCFF"/>
<path d="M1168.49 1650.63C1150.72 1655.31 1140.35 1670.68 1137.38 1677.79C1145.69 1663.34 1163.82 1652.71 1170.07 1650.24L1168.49 1650.63Z" stroke="#FFBCFF"/>
<path d="M1216.59 1741.3C1231.7 1730.83 1236.18 1712.83 1236.54 1705.14C1233.67 1721.56 1221.62 1734.98 1197.71 1751.79C1197.83 1751.7 1210.12 1745.8 1216.59 1741.3Z" stroke="#FFBCFF"/>
<path d="M1153.73 1734.06C1153.69 1747.36 1169.18 1751.95 1176.54 1753.12C1158.86 1749.34 1165.7 1734.9 1169.7 1725.65C1170.7 1723.77 1176.93 1712.64 1194.34 1685.45C1206.23 1666.88 1204.45 1656.72 1199.53 1651.77C1195.42 1647.64 1188.89 1648.14 1183.06 1648.59L1182.86 1648.6C1186.26 1648.52 1192.94 1650.3 1192.56 1658.1C1192.28 1663.91 1184.56 1676.56 1176.54 1688.56C1171.28 1696.42 1165.56 1704.05 1161.36 1712.52C1157.52 1720.26 1153.75 1729.52 1153.73 1734.06Z" stroke="#FFBCFF"/>
</g>
<defs>
<clipPath id="clip0_635_4">
<rect width="1920" height="2090" fill="white"/>
</clipPath>
</defs>
</svg>
