<svg width="373" height="376" viewBox="0 0 373 376" fill="none" xmlns="http://www.w3.org/2000/svg">
<path d="M124.463 10.9283C162.118 -3.15522 204.512 -3.19427 242.91 8.32505C292.853 23.8273 335.025 61.5222 357.062 108.836C363.14 122.321 368.958 136.378 369.531 151.36C341.455 135.09 310.672 124.534 279.824 114.915C230.492 97.1345 178.831 84.7821 132.129 60.3377C121.261 53.8296 107.398 47.1784 104.431 33.6415C103.246 21.927 115.625 15.4189 124.476 10.8632" fill="white"/>
<path d="M10.742 124.789C21.6497 95.2025 39.5343 67.7248 63.8229 47.3672C69.9927 98.1312 91.6129 147.242 127.317 184.17C170.128 228.647 231.11 255.955 293.159 254.927C317.799 255.708 341.892 250.007 365.921 245.412C342.27 330.838 248.643 387.551 161.888 373.91C109.523 367.219 61.1806 336.162 32.0108 292.44C-0.894657 244.058 -9.23817 179.822 10.742 124.789Z" fill="white"/>
<path d="M278.473 114.949C309.321 124.568 340.104 135.124 368.179 151.394L370.08 152.396C372.683 171.921 374.583 191.952 371.108 211.58C356.986 205.593 345.544 195.076 333.57 185.783C310.544 166.61 287.037 144.678 278.473 114.949Z" fill="#F4F4F4"/>
</svg>
